<?xml version="1.0" encoding="iso-8859-1"?>
<!-- Generator: Adobe Illustrator 19.0.0, SVG Export Plug-In . SVG Version: 6.00 Build 0)  -->
<svg version="1.1" id="Layer_1" xmlns="http://www.w3.org/2000/svg" xmlns:xlink="http://www.w3.org/1999/xlink" x="0px" y="0px"
	 viewBox="0 0 511.999 511.999" style="enable-background:new 0 0 511.999 511.999;" xml:space="preserve">
<g>
	<g>
		<path d="M364.009,61.933c-10.669-10.669-26.168-13.51-39.306-8.507c0.142-14.056-7.813-27.639-21.411-34.033
			c-13.708-6.446-29.282-3.766-39.874,5.56c-4.67-13.315-16.768-23.415-31.694-24.794c-15.111-1.397-28.839,6.537-35.532,19.06
			c-8.915-11.044-23.756-16.485-38.258-12.667c-14.61,3.848-24.742,16.004-26.741,30.083c-0.049,0.022-0.098,0.045-0.148,0.067
			c-12.134-7.407-27.926-7.478-40.221,1.099c-12.062,8.415-17.425,22.831-14.946,36.495c-0.15,0.149-0.303,0.292-0.453,0.442
			s-0.292,0.303-0.442,0.453c-13.664-2.479-28.079,2.883-36.494,14.946c-8.578,12.295-8.506,28.087-1.099,40.22
			c-0.021,0.05-0.045,0.099-0.067,0.148c-14.079,2-26.235,12.13-30.083,26.741c-3.819,14.502,1.623,29.343,12.667,38.258
			c-12.522,6.695-20.457,20.422-19.06,35.533c1.379,14.926,11.479,27.024,24.794,31.694c-9.327,10.592-12.007,26.166-5.56,39.874
			c6.394,13.598,19.977,21.552,34.033,21.41c-5.003,13.138-2.161,28.637,8.507,39.306c13.119,13.119,33.545,14.414,47.897,3.825
			l6.857-6.856c0.977-10.856,5.05-21.085,11.617-29.526c-6.457-12.358-8.313-26.896-4.645-40.823
			c3.731-14.167,12.662-25.959,24.575-33.403c-1.899-13.849,1.33-28.18,9.605-40.041c8.235-11.802,20.626-19.88,34.475-22.83
			c2.945-13.734,10.939-26.171,22.806-34.451c9.506-6.632,20.661-10.138,32.259-10.138c2.612,0,5.212,0.18,7.78,0.533
			c7.444-11.912,19.236-20.844,33.404-24.575c4.72-1.243,9.576-1.873,14.433-1.873c9.353,0.001,18.379,2.268,26.427,6.489
			c8.412-6.534,18.616-10.616,29.495-11.593l8.229-8.229C378.423,95.478,377.128,75.052,364.009,61.933z M324.064,102.907
			c-3.481,4.268-9.763,4.908-14.031,1.427c-58.086-47.36-141.911-43.049-194.985,10.025
			c-53.085,53.084-57.388,136.917-10.012,195.003c3.481,4.268,2.842,10.551-1.426,14.032c-1.851,1.511-4.082,2.245-6.297,2.245
			c-2.893,0-5.762-1.253-7.734-3.67c-25.793-31.624-38.923-71.583-36.969-112.514c1.968-41.218,19.133-79.999,48.333-109.2
			c29.197-29.197,67.974-46.362,109.187-48.331c40.908-1.964,80.883,11.166,112.507,36.952
			C326.905,92.357,327.545,98.639,324.064,102.907z"/>
	</g>
</g>
<g>
	<g>
		<path d="M500.404,199.708c-10.669-10.669-26.168-13.51-39.306-8.507c0.142-14.056-7.813-27.639-21.411-34.033
			c-13.708-6.446-29.282-3.766-39.874,5.56c-4.67-13.315-16.768-23.415-31.694-24.794c-15.111-1.397-28.839,6.537-35.532,19.06
			c-8.915-11.044-23.756-16.485-38.258-12.667c-14.611,3.848-24.742,16.004-26.741,30.083c-0.049,0.022-0.098,0.045-0.148,0.067
			c-12.134-7.407-27.926-7.478-40.221,1.099c-12.062,8.415-17.425,22.831-14.946,36.495c-0.15,0.149-0.303,0.292-0.453,0.442
			c-0.15,0.15-0.292,0.303-0.442,0.453c-13.664-2.479-28.079,2.883-36.494,14.946c-8.578,12.295-8.506,28.087-1.099,40.22
			c-0.021,0.05-0.045,0.099-0.067,0.148c-14.079,2-26.235,12.13-30.083,26.741c-3.819,14.502,1.623,29.343,12.667,38.258
			c-12.522,6.693-20.457,20.42-19.06,35.531c1.379,14.926,11.479,27.024,24.794,31.694c-9.327,10.592-12.007,26.166-5.56,39.874
			c6.394,13.598,19.977,21.552,34.033,21.41c-5.003,13.138-2.161,28.637,8.507,39.306c13.119,13.118,33.545,14.414,47.897,3.825
			l257.315-257.313C514.818,233.253,513.522,212.826,500.404,199.708z M460.459,240.681c-3.481,4.268-9.763,4.908-14.031,1.427
			c-58.086-47.36-141.911-43.049-194.985,10.025c-53.085,53.084-57.388,136.917-10.012,195.003
			c3.481,4.268,2.842,10.55-1.426,14.032c-1.851,1.511-4.082,2.245-6.297,2.245c-2.893,0-5.762-1.253-7.734-3.67
			c-25.793-31.624-38.923-71.583-36.969-112.514c1.968-41.218,19.133-79.999,48.333-109.2
			c29.197-29.197,67.974-46.362,109.187-48.331c40.908-1.964,80.883,11.166,112.507,36.952
			C463.3,230.131,463.939,236.413,460.459,240.681z"/>
	</g>
</g>
<g>
</g>
<g>
</g>
<g>
</g>
<g>
</g>
<g>
</g>
<g>
</g>
<g>
</g>
<g>
</g>
<g>
</g>
<g>
</g>
<g>
</g>
<g>
</g>
<g>
</g>
<g>
</g>
<g>
</g>
</svg>
