<?xml version="1.0" encoding="utf-8"?>
<!-- Svg Vector Icons : http://www.onlinewebfonts.com/icon -->
<!DOCTYPE svg PUBLIC "-//W3C//DTD SVG 1.1//EN" "http://www.w3.org/Graphics/SVG/1.1/DTD/svg11.dtd">
<svg version="1.1" xmlns="http://www.w3.org/2000/svg" xmlns:xlink="http://www.w3.org/1999/xlink" x="0px" y="0px" viewBox="0 0 1000 1000" enable-background="new 0 0 1000 1000" xml:space="preserve">
<metadata> Svg Vector Icons : http://www.onlinewebfonts.com/icon </metadata>
<g><g transform="translate(0.000000,511.000000) scale(0.100000,-0.100000)"><path d="M4759.6,4982.4c-435.3-94-792.9-468-868.5-905.3c-20.4-118.5-30.7-145.1-57.2-136.9c-102.2,40.9-271.8,71.5-388.3,71.5c-502.7-2-917.5-369.9-980.9-874.6c-38.8-302.4,69.5-613,292.2-829.7c71.5-69.5,157.4-139,192.1-153.3c69.5-28.6,87.9-79.7,87.9-247.3c0-177.8-173.7-163.5,1965.8-163.5c1804.4,0,1892.3,2,1922.9,36.8c22.5,24.5,34.8,73.6,34.8,130.8c0,163.5,18.4,214.6,87.9,243.2c34.7,14.3,120.6,83.8,192.1,153.3c553.8,541.5,304.5,1475.4-445.5,1673.6c-183.9,49-445.5,32.7-631.4-40.9c-26.6-8.2-36.8,18.4-59.3,143c-71.5,435.3-433.2,807.2-874.6,899.1C5060,5019.2,4927.1,5019.2,4759.6,4982.4z"/><path d="M3660.2,1522.8c-310.6-4.1-431.2-12.3-443.4-30.7c-8.2-12.3-16.3-81.7-16.3-153.3c0-114.4-6.1-136.9-57.2-188c-32.7-30.6-69.5-94-81.7-136.9c-34.7-118.5-30.7-476.1,8.2-627.3c63.3-241.1,210.5-515,380.1-698.9c47-51.1,96-139,130.8-235c75.6-214.6,175.7-396.4,304.5-562c441.4-557.9,1107.6-737.7,1673.6-453.7c406.7,204.3,686.6,535.4,858.3,1015.6c34.7,96,83.8,183.9,130.8,235c271.8,294.3,412.8,649.8,412.8,1034c0,255.4-22.5,345.3-102.2,425c-53.1,55.2-59.3,75.6-65.4,220.7l-6.1,159.4H5438C4696.2,1529,3897.2,1526.9,3660.2,1522.8z"/><path d="M3190.2-1309.4c-566-232.9-987-425-1183.2-539.5c-222.7-128.7-539.5-443.4-672.3-670.3c-257.5-435.3-437.3-1032-445.5-1485.6c-4.1-204.3,6.1-216.6,306.5-320.8c408.7-145.1,886.9-251.3,1461.1-327c447.5-57.2,402.6-71.5,396.4,126.7l-6.1,169.6l-116.5,10.2c-132.8,12.3-210.5,69.5-237,171.7c-24.5,96,16.3,2141.6,42.9,2174.2c10.2,14.3,40.9,24.5,63.3,20.4c57.2-8.2,67.4-108.3,73.6-629.4c4.1-218.7,12.3-549.7,18.4-735.6l12.3-337.2h51.1h51.1l12.3,296.3c8.2,163.5,14.3,465.9,18.4,674.4c2,208.4,10.2,455.7,16.3,551.7c12.3,155.3,18.4,173.7,57.2,179.8c22.5,4.1,53.1-6.1,63.3-20.4c14.3-16.3,26.6-263.6,34.7-670.3c8.2-353.5,18.4-729.5,24.5-831.7c12.3-181.9,14.3-190.1,59.3-190.1c42.9,0,49,12.3,59.3,108.3c6.1,57.2,16.3,433.2,24.5,831.7c8.2,465.9,20.4,735.7,34.7,752c10.2,14.3,40.9,24.5,63.3,20.4c57.2-8.2,67.4-108.3,73.6-639.6c4.1-224.8,10.2-555.8,18.4-735.6l12.3-327h51.1h51.1l12.3,327c8.2,179.8,14.3,502.7,18.4,715.2c2,214.6,10.2,447.5,18.4,521.1c10.2,114.4,18.4,132.8,55.2,138.9c22.5,4.1,53.1-6.1,63.3-20.4c34.7-40.9,67.4-2112.9,34.7-2194.7c-36.8-98.1-120.6-151.2-235-151.2h-100.1v-192.1c0-167.5,4.1-194.1,36.8-204.3c18.4-6.1,314.7-20.4,658-34.7c582.4-22.5,1450.9-14.3,1855.5,16.3l167.6,12.2v200.3v198.2l-71.5,45c-173.7,108.3-341.3,361.7-423,643.7c-40.9,141-47,208.4-45,490.4c0,298.3,4.1,341.3,55.2,490.4c147.1,445.5,445.5,721.3,758.1,700.9c249.3-16.3,461.8-181.9,604.9-474.1c120.6-245.2,165.5-443.4,165.5-737.7c0-284-42.9-484.3-155.3-719.3c-71.5-155.3-214.6-324.9-329-396.4l-69.5-42.9V-4532c0-159.4,4.1-181.9,36.8-181.9c63.4,0,562,61.3,825.6,102.2c570.1,87.9,1322.1,294.3,1442.7,398.5c49.1,42.9,53.1,57.2,49.1,206.4c-14.3,465.9-190,1052.4-447.5,1487.7c-132.8,222.7-449.6,539.5-670.3,670.3c-190,114.4-631.4,312.7-1199.5,543.6l-402.6,165.5l-73.6-98.1c-106.3-147.1-331-351.5-508.8-461.8c-241.1-149.2-463.9-218.7-741.8-230.9c-284-12.3-465.9,26.6-715.2,147.1c-271.8,132.8-465.9,294.3-690.7,568.1l-61.3,73.6L3190.2-1309.4z"/></g></g>
</svg>